HIERARCHY
ROOT Hips
{
	OFFSET 0.000000 0.000000 0.000000 
	CHANNELS 6 Xposition Yposition Zposition Zrotation Yrotation Xrotation
	JOINT LeftUpLeg
	{
		OFFSET 1.363060 -1.794630 0.839290 
		CHANNELS 3 Zrotation Yrotation Xrotation
		JOINT LeftLeg
		{
			OFFSET 2.448110 -6.726130 0.000000 
			CHANNELS 3 Zrotation Yrotation Xrotation
			JOINT LeftFoot
			{
				OFFSET 2.562200 -7.039590 0.000000 
				CHANNELS 3 Zrotation Yrotation Xrotation
				JOINT LeftToeBase
				{
					OFFSET 0.157640 -0.433110 2.322550 
					CHANNELS 3 Zrotation Yrotation Xrotation
					End Site
					{
						OFFSET 0.000000 0.000000 0.000000 
					}
				}
			}
		}
	}
	JOINT RightUpLeg
	{
		OFFSET -1.305520 -1.794630 0.839290 
		CHANNELS 3 Zrotation Yrotation Xrotation
		JOINT RightLeg
		{
			OFFSET -2.542530 -6.985550 0.000000 
			CHANNELS 3 Zrotation Yrotation Xrotation
			JOINT RightFoot
			{
				OFFSET -2.568260 -7.056230 0.000000 
				CHANNELS 3 Zrotation Yrotation Xrotation
				JOINT RightToeBase
				{
					OFFSET -0.164730 -0.452590 2.363150 
					CHANNELS 3 Zrotation Yrotation Xrotation
					End Site
					{
						OFFSET 0.000000 0.000000 0.000000 
					}
				}
			}
		}
	}
	JOINT Spine
	{
		OFFSET 0.028270 2.035590 -0.193380 
		CHANNELS 3 Zrotation Yrotation Xrotation
		JOINT Spine1
		{
			OFFSET 0.056720 2.048850 -0.042750 
			CHANNELS 3 Zrotation Yrotation Xrotation
			JOINT Neck1
			{
				OFFSET -0.054170 1.746240 0.172020 
				CHANNELS 3 Zrotation Yrotation Xrotation
				JOINT Head
				{
					OFFSET 0.104070 1.761360 -0.123970 
					CHANNELS 3 Zrotation Yrotation Xrotation
					End Site
					{
						OFFSET 0.000000 0.000000 0.000000 
					}
				}
			}
			JOINT LeftArm
			{
				OFFSET 3.362410 1.200890 -0.311210 
				CHANNELS 3 Zrotation Yrotation Xrotation
				JOINT LeftForeArm
				{
					OFFSET 4.983000 -0.000000 -0.000000 
					CHANNELS 3 Zrotation Yrotation Xrotation
					JOINT LeftHand
					{
						OFFSET 3.483560 -0.000000 -0.000000 
						CHANNELS 3 Zrotation Yrotation Xrotation
						JOINT LeftHandIndex1
						{
							OFFSET 0.715260 -0.000000 -0.000000 
							CHANNELS 3 Zrotation Yrotation Xrotation
							End Site
							{
								OFFSET 0.000000 0.000000 0.000000 
							}
						}
					}
				}
			}
			JOINT RightArm
			{
				OFFSET -3.136600 1.374050 -0.404650 
				CHANNELS 3 Zrotation Yrotation Xrotation
				JOINT RightForeArm
				{
					OFFSET -5.241900 -0.000000 -0.000000 
					CHANNELS 3 Zrotation Yrotation Xrotation
					JOINT RightHand
					{
						OFFSET -3.444170 -0.000000 -0.000000 
						CHANNELS 3 Zrotation Yrotation Xrotation
						JOINT RightHandIndex1
						{
							OFFSET -0.622530 -0.000000 -0.000000 
							CHANNELS 3 Zrotation Yrotation Xrotation
							End Site
							{
								OFFSET 0.000000 0.000000 0.000000 
							}
						}
					}
				}
			}
		}
	}
}
MOTION
Frames: 9
Frame Time: 0.041667
-0.161194 17.691877 -20.205782 169.851790 -85.451020 -169.173313 -15.525541 -1.021341 -23.712364 6.241697 14.932936 49.997005 1.153639 -0.373280 11.741867 2.199300 -9.269400 -26.641800 -1.956642 19.530944 -21.355644 -1.114457 -9.096228 26.868607 0.911642 -7.608444 16.201511 -0.729500 5.457200 -15.217300 4.939274 2.637332 8.762258 2.622085 0.401309 -6.812750 -3.650635 -3.514185 20.532737 -2.949400 -2.449100 9.854800 -86.965631 12.099256 29.432884 30.055542 -39.182046 -12.872135 -0.032398 -2.804601 -12.440582 -7.125000 0.000000 0.000000 58.466522 34.907953 4.889050 -14.507553 21.568070 -3.017810 -0.382673 0.341649 24.030188 7.125000 0.000000 0.000000 
-0.122321 17.676639 -20.103157 169.768590 -85.714122 -168.878296 -16.033698 0.882651 -24.669812 6.209293 14.950271 49.982430 1.407336 -1.061294 11.387759 1.852800 -8.552500 -24.405100 -2.366696 20.162919 -21.412399 -1.139051 -9.123102 27.030940 0.694179 -6.982379 15.696708 -0.265200 3.312900 -9.151100 5.111276 2.582758 8.782215 2.977076 0.365622 -6.825939 -3.563205 -3.375412 20.291445 -2.820300 -2.417500 9.737100 -87.758345 11.949084 28.086435 30.193646 -39.268777 -12.962391 0.145288 -2.765219 -12.153844 -7.125000 0.000000 0.000000 58.131037 35.601589 1.458121 -12.853321 19.204464 -2.365244 -0.337569 0.311277 21.389150 7.125000 0.000000 0.000000 
-0.091948 17.673633 -19.990477 168.026160 -85.958207 -167.024736 -16.685730 0.480108 -24.505341 6.168245 14.902011 49.811183 1.112129 -0.234430 10.469471 1.324700 -7.289100 -20.574700 -2.905053 20.740078 -21.260820 -1.122079 -9.087649 27.031907 0.355522 -6.131181 15.390156 -0.056000 1.526700 -4.199200 5.229497 2.581391 8.732458 3.273337 0.363109 -6.989901 -3.245120 -4.088246 20.276349 -2.678100 -2.751600 9.757200 -89.135754 12.127644 25.131217 30.530008 -39.500852 -13.168827 0.239072 -2.699232 -9.524046 -7.125000 0.000000 0.000000 57.894702 35.962993 -3.037284 -11.370443 17.036852 -1.841981 -0.290043 0.269444 19.254110 7.125000 0.000000 0.000000 
-0.063026 17.647510 -19.879455 166.078606 -86.185558 -164.889397 -17.444475 0.628163 -24.624549 6.139303 14.864965 49.608346 0.607475 1.190156 9.321878 1.614700 -8.012600 -22.752200 -3.436735 21.299059 -21.212604 -1.115779 -9.056120 27.003409 0.123850 -5.533671 15.014704 -0.010600 0.665400 -1.828500 5.273426 2.586172 8.683924 3.385558 0.373295 -7.082452 -3.513218 -3.530747 20.098506 -2.812200 -2.474900 9.593800 -88.877965 12.074671 25.689712 30.595263 -39.570690 -13.220721 -0.000160 -2.754645 -10.263956 -7.125000 0.000000 0.000000 57.878117 36.439072 -9.763593 -10.030951 15.047699 -1.425955 -0.254261 0.212543 19.392602 7.125000 0.000000 0.000000 
-0.054215 17.629265 -19.745834 158.427209 -86.373318 -157.213559 -18.404402 1.017036 -24.705070 6.020802 14.796892 49.296362 0.526545 1.408380 8.638222 1.284500 -7.181900 -20.255300 -4.190311 21.604017 -20.944408 -1.137601 -9.018971 26.923009 0.073005 -5.377487 14.482011 -0.010000 0.646800 -1.777500 5.271826 2.417813 8.675831 3.463824 0.305156 -7.064027 -3.405811 -3.899419 20.124495 -2.743600 -2.665700 9.632100 -89.159457 12.203102 25.509502 30.729236 -39.669029 -13.325151 0.251634 -2.693255 -10.344502 -7.125000 0.000000 0.000000 57.590748 36.719451 -17.367679 -8.988269 13.486930 -1.140007 -0.223159 0.148917 20.752900 7.125000 0.000000 0.000000 
-0.028611 17.626466 -19.647563 151.074690 -86.646692 -149.368081 -19.031980 -0.311185 -24.482152 5.873584 14.687515 48.807620 0.117298 2.482995 7.530129 0.988800 -6.329100 -17.742300 -4.768230 22.034919 -21.027005 -1.195807 -9.011103 26.847608 0.386827 -6.009290 13.668554 -0.041200 1.310500 -3.603600 5.393523 2.455124 8.572168 3.851831 0.329069 -7.103063 -3.287711 -4.276387 20.300438 -2.702100 -2.848400 9.747700 -89.607802 12.412243 25.069258 30.909004 -39.808150 -13.457145 0.227604 -2.667134 -10.247356 -7.125000 0.000000 0.000000 57.261787 36.380275 -23.517137 -8.479389 12.713608 -1.010138 -0.191301 0.091569 21.219705 7.125000 0.000000 0.000000 
-0.007360 17.598685 -19.544419 140.627761 -86.621507 -138.988992 -19.803427 0.313753 -24.494623 5.733073 14.583594 48.478096 0.363135 1.823892 7.083444 0.874500 -5.962200 -16.674700 -5.447516 22.558254 -20.726832 -1.245195 -9.021850 26.853325 0.486909 -6.167392 12.955892 -0.034600 1.200000 -3.299300 5.360127 2.344237 8.541965 4.032638 0.266789 -7.237059 -3.298170 -4.410533 20.411083 -2.723600 -2.911900 9.810800 -89.703339 12.590266 24.807994 31.046661 -39.922434 -13.558390 0.171690 -2.682032 -10.907799 -7.125000 0.000000 0.000000 57.339002 36.012023 -28.464467 -8.246244 12.337584 -0.952027 -0.163650 0.040447 21.504935 7.125000 0.000000 0.000000 
0.010677 17.578886 -19.429147 138.622893 -87.281967 -136.895555 -19.766725 0.067208 -24.343558 5.598033 14.488763 48.059973 0.366676 1.840390 6.589899 1.048500 -6.511600 -18.276200 -5.418135 22.705076 -20.624943 -1.265676 -9.050279 26.978547 0.505326 -6.080059 12.097416 -0.008600 0.598500 -1.644700 5.402826 2.419910 8.500041 3.762004 0.294506 -7.250550 -3.301497 -4.944177 20.403507 -2.777400 -3.146200 9.813200 -89.350321 12.578784 25.349920 31.039532 -39.924064 -13.560783 0.294357 -2.695789 -11.401205 -7.125000 0.000000 0.000000 57.377775 35.142266 -32.018208 -8.450899 12.624870 -0.999802 -0.132983 0.000849 20.194278 7.125000 0.000000 0.000000 
0.036385 17.552970 -19.318644 129.560857 -87.863479 -127.702442 -19.771278 -0.513983 -24.125683 5.483284 14.395380 47.699669 0.338556 1.925482 5.973782 1.328400 -7.298700 -20.603400 -5.431242 22.805046 -20.654512 -1.339272 -9.140691 27.225817 0.736098 -6.475403 11.215436 -0.007900 0.575300 -1.580900 5.717769 2.114532 8.454977 4.413620 0.106007 -7.392994 -3.177337 -4.912634 20.330986 -2.569600 -3.208700 9.789700 -90.296455 12.791450 24.192201 31.081730 -39.938160 -13.580824 0.221146 -2.709711 -11.316358 -7.125000 0.000000 0.000000 57.233327 34.520443 -33.240922 -8.817726 13.155973 -1.087171 -0.116682 -0.015738 18.183017 7.125000 0.000000 0.000000 
